<svg version="1.1" id="Layer_1" xmlns="http://www.w3.org/2000/svg" x="0" y="0" width="820" height="531.128" xml:space="preserve"><style>.st2{fill:#333}.st4{fill:none;stroke:#333;stroke-miterlimit:10}.st6{fill:#fff}</style><circle cx="410" cy="404.326" r="36.343" fill="#e5e5e5"/><path opacity=".3" fill="#00a8d6" d="M0 132.751h820v214.958H0z"/><path class="st2" d="M375.133 47.407V62.89h-64.452V47.407h64.452m0-2h-64.452c-1.1 0-2 .9-2 2V62.89c0 1.1.9 2 2 2h64.452c1.1 0 2-.9 2-2V47.407c0-1.101-.9-2-2-2zM375.133 8.559v15.483h-64.452V8.559h64.452m0-2h-64.452c-1.1 0-2 .9-2 2v15.483c0 1.1.9 2 2 2h64.452c1.1 0 2-.9 2-2V8.559c0-1.1-.9-2-2-2z"/><path class="st2" d="M375.133 27.983v15.483h-64.452V27.983h64.452m0-2h-64.452c-1.1 0-2 .9-2 2v15.483c0 1.1.9 2 2 2h64.452c1.1 0 2-.9 2-2V27.983c0-1.1-.9-2-2-2zM320.061 15.128a1.12 1.12 0 1 1-.001 2.239 1.12 1.12 0 0 1 .001-2.239m0-2a3.12 3.12 0 1 0 0 6.24 3.12 3.12 0 0 0 0-6.24z"/><path class="st2" d="M320.061 34.627a1.12 1.12 0 1 1-.001 2.239 1.12 1.12 0 0 1 .001-2.239m0-2a3.12 3.12 0 1 0 0 6.24 3.12 3.12 0 0 0 0-6.24zM320.061 54.127a1.12 1.12 0 1 1-.001 2.239 1.12 1.12 0 0 1 .001-2.239m0-2a3.12 3.12 0 1 0 0 6.24 3.12 3.12 0 0 0 0-6.24zM158.992 6.931a.07.07 0 0 1 .069.07v55.861a.07.07 0 0 1-.069.07h-31.163a.07.07 0 0 1-.069-.07V7.001a.07.07 0 0 1 .069-.07h31.163m0-2h-31.163a2.07 2.07 0 0 0-2.069 2.07v55.861a2.07 2.07 0 0 0 2.069 2.07h31.163a2.07 2.07 0 0 0 2.069-2.07V7.001a2.069 2.069 0 0 0-2.069-2.07z"/><path class="st2" d="M146.424 11.427h-6.027a1 1 0 1 1 0-2h6.027a1 1 0 1 1 0 2z"/><circle class="st2" cx="143.411" cy="60.2" r="1.149"/><path class="st2" d="M157.633 57.459h-28.291V13.183h28.291v44.276zm-26.291-2h24.291V15.183h-24.291v40.276z"/><linearGradient id="SVGID_1_" gradientUnits="userSpaceOnUse" x1="237.086" y1="281.805" x2="577.045" y2="85.53"><stop offset="0" stop-color="#17c9c0"/><stop offset=".168" stop-color="#00a9d7"/><stop offset=".564" stop-color="#1cd0bb"/><stop offset="1" stop-color="#0fbec8"/></linearGradient><path d="M586.923 225.962h-8.487v-3.211h8.487v3.211zm-12.55 0h-8.333v-3.211h8.333v3.211zm-12.395 0h-8.333v-3.211h8.333v3.211zm-12.396 0h-8.333v-3.211h8.333v3.211zm-12.396 0h-8.333v-3.211h8.333v3.211zm-12.396 0h-8.333v-3.211h8.333v3.211zm-12.395 0h-8.333v-3.211h8.333v3.211zm-12.396 0h-8.333v-3.211h8.333v3.211zm-12.396 0h-8.333v-3.211h8.333v3.211zm-12.395 0h-8.333v-3.211h8.333v3.211zm-12.396 0h-8.333v-3.211h8.333v3.211zm-12.396 0h-8.333v-3.211h8.333v3.211zm-12.395 0h-8.333v-3.211h8.333v3.211zm-12.396 0h-8.333v-3.211h8.333v3.211zm-12.396 0h-8.333v-3.211h8.333v3.211zm-12.396 0H392.5v-3.211h8.333v3.211zm-12.395 0h-8.333v-3.211h8.333v3.211zm-12.396 0h-8.333v-3.211h8.333v3.211zm-12.396 0h-8.333v-3.211h8.333v3.211zm-12.395 0h-8.333v-3.211h8.333v3.211zm-12.396 0h-8.333v-3.211h8.333v3.211zm-12.396 0h-8.333v-3.211h8.333v3.211zm-12.395 0h-8.333v-3.211h8.333v3.211zm-12.396 0h-8.333v-3.211h8.333v3.211zm-12.396 0h-8.333v-3.211h8.333v3.211zm-12.395 0h-8.333v-3.211h8.333v3.211zm-12.396 0h-8.333v-3.211h8.333v3.211zm-12.396 0h-8.333v-3.211h8.333v3.211zm-12.395 0h-8.333v-3.211h8.333v3.211zm-12.399 0a39.197 39.197 0 0 1-8.614-.971l.712-3.131c2.577.587 5.238.886 7.907.891l-.005 3.211zm363.863-.243l-.358-3.191a35.663 35.663 0 0 0 7.757-1.762l1.057 3.031a38.853 38.853 0 0 1-8.456 1.922zm-376.55-1.893a38.912 38.912 0 0 1-7.828-3.735l1.697-2.725a35.714 35.714 0 0 0 7.181 3.427l-1.05 3.033zm388.923-1.639l-1.382-2.898a35.854 35.854 0 0 0 6.755-4.201l1.988 2.521a39.12 39.12 0 0 1-7.361 4.578zm-400.218-4.526a39.266 39.266 0 0 1-6.186-6.074l2.489-2.027a36.04 36.04 0 0 0 5.679 5.576l-1.982 2.525zm410.756-2.849l-2.248-2.291a35.944 35.944 0 0 0 5.031-6.168l2.697 1.742a39.14 39.14 0 0 1-5.48 6.717zm-419.435-6.646a38.893 38.893 0 0 1-3.879-7.757l3.014-1.105a35.679 35.679 0 0 0 3.559 7.114l-2.694 1.748zm427.016-3.748l-2.87-1.438a35.562 35.562 0 0 0 2.746-7.468l3.118.764a38.751 38.751 0 0 1-2.994 8.142zm-432.135-8.059a39.08 39.08 0 0 1-1.13-8.592l3.21-.064a35.857 35.857 0 0 0 1.037 7.886l-3.117.77zm435.911-4.246l-3.183-.42c.205-1.553.308-3.141.308-4.719v-3.388h3.21v3.388c0 1.719-.113 3.447-.335 5.139zm-433.838-8.442h-3.21v-3.31c0-1.744.117-3.5.347-5.22l3.182.426a36.313 36.313 0 0 0-.318 4.794v3.31zm430.954-4.113a35.915 35.915 0 0 0-1.053-7.884l3.115-.777a39.157 39.157 0 0 1 1.147 8.591l-3.209.07zm-429.912-7.805l-3.117-.77a38.736 38.736 0 0 1 3.011-8.137l2.867 1.445a35.608 35.608 0 0 0-2.761 7.462zm427.715-3.79a35.639 35.639 0 0 0-3.574-7.108l2.69-1.752a38.952 38.952 0 0 1 3.896 7.749l-3.012 1.111zm-423.019-7.043l-2.694-1.746a39.122 39.122 0 0 1 5.495-6.707l2.243 2.297a35.978 35.978 0 0 0-5.044 6.156zm417.15-3.2a36 36 0 0 0-5.69-5.565l1.977-2.529a39.185 39.185 0 0 1 6.198 6.062l-2.485 2.032zm-409.183-5.518l-1.982-2.525a39.092 39.092 0 0 1 7.37-4.562l1.376 2.9a35.773 35.773 0 0 0-6.764 4.187zm400.306-2.272a35.624 35.624 0 0 0-7.188-3.411l1.043-3.037a38.833 38.833 0 0 1 7.836 3.72l-1.691 2.728zm-389.948-3.385l-1.05-3.033a38.853 38.853 0 0 1 8.46-1.903l.351 3.191a35.577 35.577 0 0 0-7.761 1.745zm379.022-1.086a35.95 35.95 0 0 0-7.901-.875l-.009-3.211h.009c2.905 0 5.801.321 8.607.953l-.706 3.133zm-11.972-.875h-8.333v-3.211h8.333v3.211zm-12.395 0h-8.333v-3.211h8.333v3.211zm-12.396 0h-8.333v-3.211h8.333v3.211zm-12.396 0h-8.333v-3.211h8.333v3.211zm-12.395 0h-8.333v-3.211h8.333v3.211zm-12.396 0h-8.333v-3.211h8.333v3.211zm-12.396 0h-8.333v-3.211h8.333v3.211zm-12.396 0h-8.333v-3.211h8.333v3.211zm-12.395 0h-8.333v-3.211h8.333v3.211zm-12.396 0h-8.333v-3.211h8.333v3.211zm-12.396 0h-8.333v-3.211h8.333v3.211zm-12.395 0h-8.333v-3.211h8.333v3.211zm-12.396 0h-8.333v-3.211h8.333v3.211zm-12.396 0h-8.333v-3.211h8.333v3.211zm-12.395 0h-8.333v-3.211h8.333v3.211zm-12.396 0h-8.333v-3.211h8.333v3.211zm-12.396 0h-8.333v-3.211h8.333v3.211zm-12.396 0h-8.333v-3.211h8.333v3.211zm-12.395 0h-8.333v-3.211h8.333v3.211zm-12.396 0h-8.333v-3.211h8.333v3.211zm-12.396 0h-8.333v-3.211h8.333v3.211zm-12.395 0h-8.333v-3.211h8.333v3.211zm-12.396 0h-8.333v-3.211h8.333v3.211zm-12.396 0h-8.333v-3.211h8.333v3.211zm-12.395 0h-8.333v-3.211h8.333v3.211zm-12.396 0h-8.333v-3.211h8.333v3.211zm-12.396 0h-8.333v-3.211h8.333v3.211zm-12.395 0h-8.333v-3.211h8.333v3.211zm-12.396 0h-8.256l-.077-3.211h8.333v3.211z" fill="url(#SVGID_1_)"/><path class="st2" d="M415.595 392.972h6.723v1.425h-5.13v2.358h4.547v1.425h-4.547v2.436h5.195v1.425h-6.788v-9.069zM425.079 392.972h1.593v7.617h4.767v1.451h-6.361v-9.068zM433.902 392.972h6.723v1.425h-5.13v2.358h4.547v1.425h-4.547v2.436h5.195v1.425h-6.788v-9.069zM442.984 397.533v-.026c0-2.578 1.93-4.689 4.677-4.689 1.671 0 2.682.583 3.55 1.412l-1.023 1.179c-.725-.674-1.503-1.127-2.539-1.127-1.723 0-2.992 1.425-2.992 3.2v.025c0 1.774 1.257 3.213 2.992 3.213 1.114 0 1.827-.44 2.604-1.166l1.023 1.036c-.946.984-1.982 1.606-3.679 1.606-2.644 0-4.613-2.06-4.613-4.663zM455.979 394.449h-2.876v-1.477h7.358v1.477h-2.876v7.592h-1.606v-7.592zM462.95 392.972h4.042c1.14 0 2.034.337 2.617.907.479.492.751 1.166.751 1.956v.025c0 1.49-.894 2.384-2.15 2.747l2.448 3.433h-1.891l-2.228-3.161h-1.995v3.161h-1.593v-9.068zm3.925 4.495c1.14 0 1.865-.596 1.865-1.516v-.025c0-.972-.7-1.503-1.878-1.503h-2.319v3.044h2.332zM472.719 397.533v-.026c0-2.552 1.969-4.689 4.754-4.689 2.785 0 4.728 2.111 4.728 4.664v.025c0 2.552-1.969 4.689-4.754 4.689-2.785 0-4.728-2.111-4.728-4.663zm7.812 0v-.026c0-1.762-1.282-3.226-3.083-3.226-1.801 0-3.057 1.438-3.057 3.2v.025c0 1.762 1.282 3.213 3.083 3.213 1.8 0 3.057-1.424 3.057-3.186zM484.937 392.972h1.477l4.858 6.271v-6.271h1.568v9.068h-1.334l-5-6.451v6.451h-1.567v-9.068zM496.066 392.972h1.594v9.068h-1.594v-9.068zM500.484 397.533v-.026c0-2.578 1.93-4.689 4.677-4.689 1.671 0 2.682.583 3.55 1.412l-1.023 1.179c-.725-.674-1.503-1.127-2.539-1.127-1.723 0-2.992 1.425-2.992 3.2v.025c0 1.774 1.257 3.213 2.992 3.213 1.114 0 1.827-.44 2.604-1.166l1.023 1.036c-.946.984-1.982 1.606-3.679 1.606-2.644 0-4.613-2.06-4.613-4.663zM515.941 392.972h1.593v3.77h4.327v-3.77h1.594v9.068h-1.594v-3.821h-4.327v3.821h-1.593v-9.068zM526.591 392.972h6.723v1.425h-5.13v2.358h4.547v1.425h-4.547v2.436h5.195v1.425h-6.788v-9.069zM539.288 392.908h1.477l3.99 9.133h-1.684l-.92-2.189h-4.288l-.933 2.189h-1.632l3.99-9.133zm2.28 5.531L540 394.812l-1.555 3.627h3.123zM547.114 392.972h1.593v7.617h4.767v1.451h-6.361v-9.068zM556.869 394.449h-2.876v-1.477h7.358v1.477h-2.876v7.592h-1.606v-7.592zM563.84 392.972h1.593v3.77h4.327v-3.77h1.594v9.068h-1.594v-3.821h-4.327v3.821h-1.593v-9.068zM415.595 408.52h4.042c1.14 0 2.034.337 2.617.907.479.492.751 1.166.751 1.956v.025c0 1.49-.894 2.384-2.15 2.747l2.448 3.433h-1.891l-2.228-3.161h-1.995v3.161h-1.593v-9.068zm3.925 4.495c1.14 0 1.865-.596 1.865-1.516v-.025c0-.972-.7-1.503-1.879-1.503h-2.319v3.044h2.333zM425.765 408.52h6.723v1.425h-5.13v2.358h4.547v1.425h-4.547v2.436h5.195v1.425h-6.788v-9.069zM434.848 413.081v-.026c0-2.578 1.93-4.689 4.677-4.689 1.671 0 2.682.583 3.55 1.412l-1.023 1.179c-.725-.674-1.503-1.127-2.539-1.127-1.723 0-2.992 1.425-2.992 3.199v.026c0 1.774 1.257 3.213 2.992 3.213 1.114 0 1.827-.44 2.604-1.166l1.023 1.036c-.946.984-1.982 1.606-3.679 1.606-2.644 0-4.613-2.06-4.613-4.663zM444.954 413.081v-.026c0-2.552 1.969-4.689 4.754-4.689 2.785 0 4.728 2.111 4.728 4.663v.026c0 2.552-1.969 4.689-4.754 4.689-2.785 0-4.728-2.112-4.728-4.663zm7.811 0v-.026c0-1.762-1.282-3.226-3.083-3.226-1.801 0-3.057 1.438-3.057 3.199v.026c0 1.762 1.282 3.213 3.083 3.213 1.801 0 3.057-1.425 3.057-3.186zM457.172 408.52h4.042c1.14 0 2.034.337 2.617.907.479.492.751 1.166.751 1.956v.025c0 1.49-.894 2.384-2.15 2.747l2.448 3.433h-1.891l-2.228-3.161h-1.995v3.161h-1.593v-9.068zm3.925 4.495c1.14 0 1.865-.596 1.865-1.516v-.025c0-.972-.7-1.503-1.878-1.503h-2.319v3.044h2.332zM467.342 408.52h3.381c2.85 0 4.819 1.956 4.819 4.508v.026c0 2.552-1.969 4.534-4.819 4.534h-3.381v-9.068zm1.594 1.451v6.166h1.788c1.904 0 3.148-1.282 3.148-3.057v-.026c0-1.774-1.244-3.083-3.148-3.083h-1.788zM482.359 416.267l.958-1.14c.868.751 1.749 1.179 2.863 1.179.985 0 1.606-.467 1.606-1.141v-.025c0-.647-.363-.998-2.047-1.387-1.93-.466-3.019-1.036-3.019-2.707v-.026c0-1.555 1.296-2.63 3.096-2.63 1.322 0 2.371.402 3.291 1.141l-.855 1.204c-.816-.608-1.632-.933-2.461-.933-.933 0-1.477.479-1.477 1.075v.026c0 .699.415 1.011 2.164 1.425 1.917.467 2.902 1.153 2.902 2.656v.025c0 1.697-1.334 2.708-3.239 2.708a5.576 5.576 0 0 1-3.782-1.45zM492.063 408.52h6.723v1.425h-5.13v2.358h4.547v1.425h-4.547v2.436h5.195v1.425h-6.788v-9.069zM501.547 408.52h4.042c1.14 0 2.034.337 2.617.907.479.492.751 1.166.751 1.956v.025c0 1.49-.894 2.384-2.15 2.747l2.448 3.433h-1.891l-2.228-3.161h-1.995v3.161h-1.593v-9.068zm3.925 4.495c1.14 0 1.865-.596 1.865-1.516v-.025c0-.972-.7-1.503-1.879-1.503h-2.319v3.044h2.333zM510.681 408.52h1.762l2.734 6.97 2.72-6.97h1.723l-3.757 9.133h-1.412l-3.77-9.133zM521.979 408.52h6.723v1.425h-5.13v2.358h4.547v1.425h-4.547v2.436h5.195v1.425h-6.788v-9.069zM531.463 408.52h4.042c1.14 0 2.034.337 2.617.907.479.492.751 1.166.751 1.956v.025c0 1.49-.894 2.384-2.15 2.747l2.448 3.433h-1.891l-2.228-3.161h-1.995v3.161h-1.593v-9.068zm3.925 4.495c1.14 0 1.865-.596 1.865-1.516v-.025c0-.972-.7-1.503-1.878-1.503h-2.319v3.044h2.332z"/><g><path class="st2" d="M68.948 246.698h1.477l4.858 6.271v-6.271h1.568v9.068h-1.334l-5-6.451v6.451H68.95v-9.068zM79.987 246.698h6.723v1.425h-5.13v2.358h4.547v1.425H81.58v2.436h5.195v1.425h-6.788v-9.069zM88.771 246.698h1.723l2.163 6.724 2.228-6.749h1.347l2.228 6.749 2.163-6.724h1.671l-3.148 9.133H97.76l-2.228-6.516-2.228 6.516h-1.373l-3.16-9.133zM71.176 263.722H68.3v-1.477h7.358v1.477h-2.876v7.592h-1.606v-7.592zM78.147 262.246h4.042c1.14 0 2.034.337 2.617.907.479.492.751 1.166.751 1.956v.025c0 1.49-.894 2.384-2.15 2.747l2.448 3.433h-1.891l-2.228-3.161H79.74v3.161h-1.593v-9.068zm3.925 4.495c1.14 0 1.865-.596 1.865-1.516v-.025c0-.972-.7-1.503-1.878-1.503H79.74v3.044h2.332zM91.53 262.181h1.477l3.99 9.133h-1.684l-.92-2.189h-4.288l-.933 2.189H87.54l3.99-9.133zm2.28 5.531l-1.567-3.627-1.555 3.627h3.122zM99.356 262.246h1.477l4.858 6.271v-6.271h1.568v9.068h-1.334l-5-6.451v6.451h-1.567v-9.068zM109.786 269.993l.958-1.14c.868.751 1.749 1.179 2.863 1.179.985 0 1.606-.467 1.606-1.141v-.025c0-.647-.363-.998-2.047-1.387-1.93-.466-3.019-1.036-3.019-2.707v-.026c0-1.555 1.296-2.63 3.096-2.63 1.322 0 2.371.402 3.291 1.141l-.855 1.204c-.816-.608-1.632-.933-2.461-.933-.933 0-1.477.479-1.477 1.075v.026c0 .699.415 1.011 2.164 1.425 1.917.467 2.902 1.153 2.902 2.656v.025c0 1.697-1.334 2.708-3.239 2.708a5.583 5.583 0 0 1-3.782-1.45zM119.49 262.246h1.593v7.617h4.767v1.451h-6.361v-9.068zM131.526 262.181h1.477l3.99 9.133h-1.684l-.92-2.189h-4.288l-.933 2.189h-1.632l3.99-9.133zm2.28 5.531l-1.567-3.627-1.555 3.627h3.122zM140.414 263.722h-2.876v-1.477h7.358v1.477h-2.876v7.592h-1.606v-7.592zM147.476 262.246h1.594v9.068h-1.594v-9.068zM151.894 266.806v-.026c0-2.552 1.969-4.689 4.754-4.689 2.785 0 4.728 2.111 4.728 4.664v.025c0 2.552-1.969 4.689-4.754 4.689-2.785 0-4.728-2.111-4.728-4.663zm7.811 0v-.026c0-1.762-1.282-3.226-3.083-3.226-1.801 0-3.057 1.438-3.057 3.2v.025c0 1.762 1.282 3.213 3.083 3.213 1.801.001 3.057-1.424 3.057-3.186zM164.112 262.246h1.477l4.858 6.271v-6.271h1.568v9.068h-1.334l-5-6.451v6.451h-1.567v-9.068z"/></g><linearGradient id="SVGID_2_" gradientUnits="userSpaceOnUse" x1="312.136" y1="351.495" x2="501.995" y2="241.88"><stop offset="0" stop-color="#17c9c0"/><stop offset=".168" stop-color="#00a9d7"/><stop offset=".564" stop-color="#1cd0bb"/><stop offset="1" stop-color="#0fbec8"/></linearGradient><path d="M486.856 338.983h-8.434v-3.211h8.434v3.211zm-12.471 0h-8.28v-3.211h8.28v3.211zm-12.317 0h-8.28v-3.211h8.28v3.211zm-12.318 0h-8.28v-3.211h8.28v3.211zm-12.317 0h-8.281v-3.211h8.281v3.211zm-12.317 0h-8.281v-3.211h8.281v3.211zm-12.317 0h-8.28v-3.211h8.28v3.211zm-12.318 0h-8.28v-3.211h8.28v3.211zm-12.317 0h-8.28v-3.211h8.28v3.211zm-12.318 0h-8.28v-3.211h8.28v3.211zm-12.317 0h-8.281v-3.211h8.281v3.211zm-12.317 0h-8.281v-3.211h8.281v3.211zm-12.317 0h-8.28v-3.211h8.28v3.211zm-12.353-.011a39.03 39.03 0 0 1-8.539-1.137l.773-3.115c2.554.633 5.19.984 7.837 1.043l-.071 3.209zm164.52-.23l-.356-3.191a35.752 35.752 0 0 0 7.711-1.739l1.05 3.033a39.012 39.012 0 0 1-8.405 1.897zM313.978 336.6a38.846 38.846 0 0 1-7.71-3.854l1.745-2.695a35.595 35.595 0 0 0 7.072 3.535l-1.107 3.014zm189.386-1.347l-1.375-2.901a35.923 35.923 0 0 0 6.727-4.151l1.977 2.529a39.167 39.167 0 0 1-7.329 4.523zm-200.499-4.979a39.29 39.29 0 0 1-6.049-6.133l2.519-1.99a36.077 36.077 0 0 0 5.555 5.631l-2.025 2.492zm210.999-2.308l-2.237-2.303a36.085 36.085 0 0 0 5.034-6.101l2.686 1.758a39.27 39.27 0 0 1-5.483 6.646zm-219.475-7.262a38.87 38.87 0 0 1-3.747-7.76l3.028-1.066a35.657 35.657 0 0 0 3.437 7.119l-2.718 1.707zm227.069-3.024l-2.86-1.459a35.628 35.628 0 0 0 2.786-7.398l3.112.789a38.732 38.732 0 0 1-3.038 8.068zm-231.995-8.776a39.107 39.107 0 0 1-1.021-8.552l3.21-.029c.024 2.65.339 5.292.937 7.851l-3.126.73zm235.845-3.421l-3.179-.447c.234-1.658.352-3.354.352-5.041V297h3.21v2.995c0 1.836-.129 3.682-.383 5.488zM291.65 296.3h-3.21v-2.918c0-1.864.133-3.737.395-5.569l3.178.455a36.311 36.311 0 0 0-.363 5.114v2.918zm230.828-3.32a35.981 35.981 0 0 0-.953-7.849l3.125-.736a39.16 39.16 0 0 1 1.039 8.55l-3.211.035zm-229.712-8.498l-3.11-.797a38.867 38.867 0 0 1 3.054-8.062l2.857 1.465a35.557 35.557 0 0 0-2.801 7.394zm227.67-3.053a35.743 35.743 0 0 0-3.452-7.112l2.715-1.713a38.905 38.905 0 0 1 3.763 7.753l-3.026 1.072zm-222.925-7.676l-2.683-1.764a39.25 39.25 0 0 1 5.497-6.635l2.232 2.309a35.899 35.899 0 0 0-5.046 6.09zm217.24-2.585a36.026 36.026 0 0 0-5.566-5.619l2.019-2.496a39.252 39.252 0 0 1 6.062 6.121l-2.515 1.994zm-209.278-6.038l-1.972-2.533a39.028 39.028 0 0 1 7.34-4.509l1.368 2.904a35.878 35.878 0 0 0-6.736 4.138zm200.583-1.845a35.629 35.629 0 0 0-7.08-3.521l1.102-3.016a38.863 38.863 0 0 1 7.717 3.838l-1.739 2.699zm-190.272-3.744l-1.044-3.035a38.867 38.867 0 0 1 8.41-1.88l.348 3.191a35.68 35.68 0 0 0-7.714 1.724zm179.499-.902a35.926 35.926 0 0 0-7.84-1.028l.065-3.209c2.886.059 5.76.436 8.541 1.12l-.766 3.117zm-11.843-1.035h-8.28v-3.211h8.28v3.211zm-12.317 0h-8.281v-3.211h8.281v3.211zm-12.318 0h-8.281v-3.211h8.281v3.211zm-12.317 0h-8.28v-3.211h8.28v3.211zm-12.318 0h-8.28v-3.211h8.28v3.211zm-12.317 0h-8.28v-3.211h8.28v3.211zm-12.317 0h-8.28v-3.211h8.28v3.211zm-12.318 0h-8.28v-3.211h8.28v3.211zm-12.317 0h-8.281v-3.211h8.281v3.211zm-12.317 0h-8.281v-3.211h8.281v3.211zm-12.318 0h-8.28v-3.211h8.28v3.211zm-12.317 0h-8.28v-3.211h8.28v3.211zm-12.317 0h-8.203l-.077-3.211h8.28v3.211z" fill="url(#SVGID_2_)"/><g><path class="st2" d="M408 350.243h4v16.311h-4z"/><path class="st2" d="M404.017 351.993L410 341.631l5.984 10.362zM404.017 364.803L410 375.165l5.984-10.362z"/></g><g><path class="st2" d="M408 232.074h4v16.312h-4z"/><path class="st2" d="M404.017 233.825L410 223.463l5.984 10.362zM404.017 246.635L410 256.998l5.984-10.363z"/></g><g><path class="st2" d="M475.093 76.922h4v50.738h-4z"/><path class="st2" d="M471.11 78.673l5.983-10.362 5.984 10.362zM471.11 125.91l5.983 10.362 5.984-10.362zM340.907 76.922h4v50.738h-4z"/><path class="st2" d="M336.923 78.673l5.984-10.362 5.984 10.362zM336.923 125.91l5.984 10.362 5.984-10.362z"/><g><path transform="rotate(-49.571 197.825 104.676)" class="st2" d="M195.82 64.555h4v80.234h-4z"/><path class="st2" d="M164.734 84.347l-4.007-11.275 11.768 2.165zM223.145 134.107l11.769 2.165-4.008-11.274z"/></g><g><path transform="rotate(-41.988 624.1 104.677)" class="st2" d="M585.519 102.673h77.266v3.999h-77.266z"/><path class="st2" d="M647.568 75.555l11.706-2.483-3.701 11.379zM592.732 124.893l-3.701 11.379 11.705-2.482z"/></g></g><g><path class="st2" d="M415.595 173.655h6.749v1.451h-5.156v2.475h4.573v1.449h-4.573v3.693h-1.593v-9.068zM424.897 173.655h1.593v3.77h4.327v-3.77h1.594v9.068h-1.594v-3.822h-4.327v3.822h-1.593v-9.068zM435.638 173.655h1.594v9.068h-1.594v-9.068zM440.458 173.655h4.042c1.14 0 2.034.336 2.617.906.479.492.751 1.166.751 1.957v.025c0 1.49-.894 2.383-2.15 2.746l2.448 3.434h-1.891l-2.228-3.162h-1.995v3.162h-1.593v-9.068zm3.925 4.494c1.14 0 1.865-.596 1.865-1.516v-.025c0-.971-.7-1.502-1.879-1.502h-2.319v3.043h2.333zM418.807 189.137h1.477l3.99 9.133h-1.684l-.92-2.189h-4.288l-.933 2.189h-1.632l3.99-9.133zm2.28 5.532l-1.567-3.627-1.555 3.627h3.122zM426.634 189.202h3.575c2.125 0 3.446 1.205 3.446 3.031v.027c0 2.033-1.632 3.096-3.627 3.096h-1.801v2.914h-1.593v-9.068zm3.445 4.717c1.205 0 1.956-.674 1.956-1.619v-.027c0-1.062-.764-1.619-1.956-1.619h-1.853v3.266h1.853zM436.182 189.202h1.594v9.068h-1.594v-9.068z"/></g><g><path class="st2" d="M402.012 156.169v53.106h-53.106v-53.106h53.106m0-2h-53.106a2 2 0 0 0-2 2v53.106a2 2 0 0 0 2 2h53.106a2 2 0 0 0 2-2v-53.106a2 2 0 0 0-2-2z"/><path class="st2" d="M402.839 164.654h-54.762a1 1 0 1 1 0-2h54.762a1 1 0 1 1 0 2zM353.968 160.375h-1.674a1 1 0 1 1 0-2h1.674a1 1 0 1 1 0 2zM359.363 160.375h-1.674a1 1 0 1 1 0-2h1.674a1 1 0 1 1 0 2zM364.759 160.375h-1.674a1 1 0 1 1 0-2h1.674a1 1 0 1 1 0 2zM364.335 179.467a1.108 1.108 0 0 1 .791 1.883l-5.841 5.975 5.797 5.302a1.108 1.108 0 0 1-1.495 1.636l-6.643-6.076a1.107 1.107 0 0 1-.045-1.593l6.643-6.793c.218-.222.505-.334.793-.334m0-1.8c-.789 0-1.526.31-2.079.874l-6.644 6.795a2.925 2.925 0 0 0-.828 2.117c.021.779.365 1.531.942 2.061l6.645 6.078a2.907 2.907 0 0 0 4.109-.185c.523-.57.793-1.313.759-2.09a2.887 2.887 0 0 0-.943-2.018l-4.423-4.046 4.541-4.644a2.892 2.892 0 0 0 .829-2.065 2.895 2.895 0 0 0-.875-2.048 2.892 2.892 0 0 0-2.033-.829zM386.582 179.467c.267 0 .535.096.749.29l6.643 6.075c.222.204.352.487.359.787.009.301-.105.591-.315.806l-6.643 6.795a1.103 1.103 0 0 1-1.566.017 1.11 1.11 0 0 1-.018-1.567l5.842-5.976-5.797-5.302a1.107 1.107 0 0 1 .746-1.925m0-1.8a2.91 2.91 0 0 0-1.962 5.054l4.425 4.046-4.541 4.645a2.913 2.913 0 0 0 .046 4.112 2.891 2.891 0 0 0 2.033.829c.789 0 1.527-.311 2.079-.875l6.643-6.795c.55-.565.85-1.335.827-2.117a2.924 2.924 0 0 0-.941-2.06l-6.646-6.078a2.914 2.914 0 0 0-1.963-.761zM378.232 179.597a1.109 1.109 0 0 1 1.017 1.544l-5.355 12.464a1.109 1.109 0 0 1-2.037-.874l5.355-12.464a1.11 1.11 0 0 1 1.02-.67m0-1.8c-1.165 0-2.213.69-2.673 1.759l-5.355 12.465a2.885 2.885 0 0 0-.029 2.225c.288.722.84 1.288 1.554 1.594a2.906 2.906 0 0 0 3.818-1.523l5.355-12.465a2.885 2.885 0 0 0 .029-2.225 2.888 2.888 0 0 0-1.554-1.595 2.89 2.89 0 0 0-1.145-.235z"/></g><g><path class="st2" d="M415.595 286.675h6.749v1.451h-5.156v2.475h4.573v1.45h-4.573v3.692h-1.593v-9.068zM424.897 286.675h1.593v3.77h4.327v-3.77h1.594v9.068h-1.594v-3.821h-4.327v3.821h-1.593v-9.068zM435.638 286.675h1.594v9.068h-1.594v-9.068zM440.458 286.675h4.042c1.14 0 2.034.337 2.617.907.479.492.751 1.166.751 1.956v.025c0 1.49-.894 2.384-2.15 2.747l2.448 3.433h-1.891l-2.228-3.161h-1.995v3.161h-1.593v-9.068zm3.925 4.496c1.14 0 1.865-.596 1.865-1.516v-.025c0-.972-.7-1.503-1.879-1.503h-2.319v3.044h2.333zM414.986 309.97l.958-1.14c.868.751 1.749 1.179 2.863 1.179.985 0 1.606-.467 1.606-1.141v-.025c0-.647-.363-.998-2.047-1.387-1.93-.466-3.019-1.036-3.019-2.707v-.026c0-1.555 1.296-2.63 3.096-2.63 1.322 0 2.371.402 3.291 1.141l-.855 1.204c-.816-.608-1.632-.933-2.461-.933-.933 0-1.477.479-1.477 1.075v.026c0 .699.415 1.011 2.164 1.425 1.917.467 2.902 1.153 2.902 2.656v.025c0 1.697-1.334 2.708-3.239 2.708a5.576 5.576 0 0 1-3.782-1.45zM424.69 302.223h6.723v1.425h-5.13v2.358h4.547v1.425h-4.547v2.436h5.195v1.425h-6.788v-9.069zM434.174 302.223h4.042c1.14 0 2.034.337 2.617.907.479.492.751 1.166.751 1.956v.025c0 1.49-.894 2.384-2.15 2.747l2.448 3.433h-1.891l-2.228-3.161h-1.995v3.161h-1.593v-9.068zm3.925 4.495c1.14 0 1.865-.596 1.865-1.516v-.025c0-.972-.7-1.503-1.879-1.503h-2.319v3.044h2.333zM443.309 302.223h1.762l2.734 6.97 2.72-6.97h1.723l-3.757 9.133h-1.412l-3.77-9.133zM454.606 302.223h6.723v1.425h-5.13v2.358h4.547v1.425H456.2v2.436h5.195v1.425h-6.788v-9.069zM464.091 302.223h4.042c1.14 0 2.034.337 2.617.907.479.492.751 1.166.751 1.956v.025c0 1.49-.894 2.384-2.15 2.747l2.448 3.433h-1.891l-2.228-3.161h-1.995v3.161h-1.593v-9.068zm3.925 4.495c1.14 0 1.865-.596 1.865-1.516v-.025c0-.972-.7-1.503-1.879-1.503h-2.319v3.044h2.333z"/></g><g><path class="st2" d="M401.862 269.19v53.107h-34.107V269.19h34.107m0-2h-34.107a2 2 0 0 0-2 2v53.107a2 2 0 0 0 2 2h34.107a2 2 0 0 0 2-2V269.19a2 2 0 0 0-2-2z"/><path class="st2" d="M384.809 311.459a1.12 1.12 0 1 1-.001 2.241 1.12 1.12 0 0 1 .001-2.241m0-2a3.12 3.12 0 1 0 0 6.24 3.12 3.12 0 0 0 0-6.24zM395.102 275.956v2.74h-20.585v-2.74h20.585m2-2h-24.585v6.74h24.585v-6.74zM395.102 284.435v2.74h-20.585v-2.74h20.585m2-2h-24.585v6.74h24.585v-6.74zM395.102 292.35v2.74h-20.585v-2.74h20.585m2-2h-24.585v6.74h24.585v-6.74z"/></g><g><path class="st6" d="M401.862 434.902h-34.107a2 2 0 0 1-2-2v-53.107a2 2 0 0 1 2-2h34.107a2 2 0 0 1 2 2v53.107a2 2 0 0 1-2 2z"/><path class="st2" d="M401.862 379.796v53.106h-34.106v-53.106h34.106m0-2h-34.106a2 2 0 0 0-2 2v53.106a2 2 0 0 0 2 2h34.106a2 2 0 0 0 2-2v-53.106a2 2 0 0 0-2-2z"/><path class="st2" d="M384.809 422.065a1.12 1.12 0 1 1-.001 2.239 1.12 1.12 0 0 1 .001-2.239m0-2a3.12 3.12 0 1 0 0 6.24 3.12 3.12 0 0 0 0-6.24zM395.102 386.562v2.74h-20.585v-2.74h20.585m2-2h-24.585v6.74h24.585v-6.74zM395.102 395.041v2.74h-20.585v-2.74h20.585m2-2h-24.585v6.74h24.585v-6.74zM395.102 402.956v2.74h-20.585v-2.74h20.585m2-2h-24.585v6.74h24.585v-6.74z"/></g><g><path class="st2" d="M667.85 66.992h-18.533a1 1 0 0 1-.617-1.787c2.768-2.17 2.534-4.902 2.522-5.018a1.003 1.003 0 0 1 .89-1.096 1.001 1.001 0 0 1 1.098.878c.014.127.262 2.573-1.532 5.022h13.819c-1.802-2.481-1.555-5.007-1.541-5.138a1 1 0 1 1 1.988.217c-.011.114-.25 2.96 2.523 5.134a1.001 1.001 0 0 1-.617 1.788z"/><path class="st2" d="M690.799 59.897h-64.431a3.575 3.575 0 0 1-3.571-3.57V18.956a3.575 3.575 0 0 1 3.571-3.571h64.431a3.576 3.576 0 0 1 3.571 3.571v37.371a3.574 3.574 0 0 1-3.571 3.57zm-64.431-42.513c-.866 0-1.571.705-1.571 1.571v37.371c0 .866.705 1.57 1.571 1.57h64.431c.866 0 1.571-.704 1.571-1.57v-37.37c0-.866-.705-1.571-1.571-1.571h-64.431z"/><path class="st2" d="M693.079 53.944h-68.99a1 1 0 1 1 0-2h68.99a1 1 0 1 1 0 2z"/></g><g><path transform="rotate(-40.043 644.463 37.915)" class="st2" d="M638.127 36.919h12.725v2h-12.725z"/><path transform="rotate(-56.962 658.955 36.833)" class="st2" d="M657.943 32.043h1.999v9.585h-1.999z"/><path transform="rotate(-46.317 673.448 33.932)" class="st2" d="M667.968 32.931h11.036v1.999h-11.036z"/><path class="st2" d="M637.002 41.514c1.587 0 2.878 1.291 2.878 2.878s-1.291 2.878-2.878 2.878-2.878-1.291-2.878-2.878 1.291-2.878 2.878-2.878m0-2a4.878 4.878 0 1 0 0 9.756 4.878 4.878 0 0 0 0-9.756zM666.767 37.749c1.587 0 2.878 1.291 2.878 2.878s-1.291 2.878-2.878 2.878-2.878-1.291-2.878-2.878 1.291-2.878 2.878-2.878m0-2a4.878 4.878 0 1 0 0 9.756 4.878 4.878 0 0 0 0-9.756zM680.165 24.651c1.587 0 2.878 1.291 2.878 2.878s-1.291 2.878-2.878 2.878-2.878-1.291-2.878-2.878 1.291-2.878 2.878-2.878m0-2a4.878 4.878 0 1 0 0 9.756 4.878 4.878 0 0 0 0-9.756zM651.971 29.09c1.587 0 2.878 1.291 2.878 2.878s-1.291 2.878-2.878 2.878-2.878-1.291-2.878-2.878 1.292-2.878 2.878-2.878m0-2a4.878 4.878 0 1 0 0 9.756 4.878 4.878 0 0 0 0-9.756z"/></g><g><path class="st2" d="M516.773 64.451h-75.831c-1.874 0-4.104-.634-4.571-2.025l-1.69-5.027a.998.998 0 0 1 .948-1.318h86.456a1 1 0 0 1 .948 1.318l-1.69 5.027c-.467 1.391-2.696 2.025-4.57 2.025zm-79.752-6.371l1.247 3.709c.119.155 1.128.662 2.675.662h75.831c1.547 0 2.555-.507 2.696-.709l1.227-3.662h-83.676z"/><path class="st2" d="M512.304 57.368a1 1 0 0 1-1-1v-40.65h-64.892v40.418a1 1 0 1 1-2 0V14.717a1 1 0 0 1 1-1h66.892a1 1 0 0 1 1 1v41.65a1 1 0 0 1-1 1.001z"/><path class="st2" d="M492.846 21.111c2.757 0 5 2.243 5 5v19.934c0 2.757-2.243 5-5 5h-6.522c-2.757 0-5-2.243-5-5V26.111c0-2.757 2.243-5 5-5h6.522m0-2h-6.522c-3.85 0-7 3.15-7 7v19.934c0 3.85 3.15 7 7 7h6.522c3.85 0 7-3.15 7-7V26.111c0-3.85-3.15-7-7-7z"/><path class="st2" d="M489.443 30.673a1 1 0 0 1-1-1v-3.608a1 1 0 1 1 2 0v3.608a1 1 0 0 1-1 1z"/><path class="st2" d="M517.967 56.894a1 1 0 0 1-1-1c0-1.015-.295-1.757-.901-2.268-1.281-1.078-3.743-.94-4.585-.795a.988.988 0 0 1-.171.015c-6.271 0-7.117-3.371-7.117-6.668V14.423c0-4.653-2.262-6.916-6.917-6.916-1.073 0-3.204.111-3.805.248-2.637.6-4.551 3.112-4.551 5.975v5.911a1 1 0 1 1-2 0V13.73c0-3.787 2.568-7.12 6.107-7.925.918-.209 3.411-.298 4.249-.298 5.75 0 8.917 3.166 8.917 8.916v31.755c0 2.718.363 4.646 5.039 4.668.625-.093 4.025-.51 6.117 1.246 1.074.901 1.618 2.181 1.618 3.802a1 1 0 0 1-1 1z"/></g><g><path class="st2" d="M301.899 513.357h1.697l2.759 4.288 2.759-4.288h1.697v9.068h-1.594v-6.503l-2.863 4.274h-.052l-2.837-4.249v6.478h-1.567v-9.068zM313.948 513.357h6.723v1.425h-5.13v2.358h4.547v1.425h-4.547v2.436h5.195v1.425h-6.788v-9.069zM323.432 513.357h3.381c2.85 0 4.819 1.956 4.819 4.509v.025c0 2.552-1.969 4.534-4.819 4.534h-3.381v-9.068zm1.594 1.451v6.166h1.788c1.904 0 3.148-1.282 3.148-3.057v-.026c0-1.774-1.244-3.083-3.148-3.083h-1.788zM334.458 513.357h1.594v9.068h-1.594v-9.068zM338.876 517.918v-.026c0-2.578 1.93-4.689 4.677-4.689 1.671 0 2.682.583 3.55 1.412l-1.023 1.179c-.725-.674-1.503-1.127-2.539-1.127-1.723 0-2.992 1.425-2.992 3.2v.025c0 1.774 1.257 3.213 2.992 3.213 1.114 0 1.827-.44 2.604-1.166l1.023 1.036c-.946.984-1.982 1.606-3.679 1.606-2.644 0-4.613-2.06-4.613-4.663zM352.855 513.293h1.477l3.99 9.133h-1.684l-.92-2.189h-4.288l-.933 2.189h-1.632l3.99-9.133zm2.28 5.531l-1.567-3.627-1.555 3.627h3.122zM360.682 513.357h1.593v7.617h4.767v1.451h-6.361v-9.068zM374.195 513.357h4.042c1.14 0 2.034.337 2.617.907.479.492.751 1.166.751 1.956v.025c0 1.49-.894 2.384-2.15 2.747l2.448 3.433h-1.891l-2.228-3.161h-1.995v3.161h-1.593v-9.068zm3.925 4.495c1.14 0 1.865-.596 1.865-1.516v-.025c0-.972-.7-1.503-1.879-1.503h-2.319v3.044h2.333zM384.365 513.357h6.723v1.425h-5.13v2.358h4.547v1.425h-4.547v2.436h5.195v1.425h-6.788v-9.069zM393.448 517.918v-.026c0-2.578 1.93-4.689 4.677-4.689 1.671 0 2.682.583 3.55 1.412l-1.023 1.179c-.725-.674-1.503-1.127-2.539-1.127-1.723 0-2.992 1.425-2.992 3.2v.025c0 1.774 1.257 3.213 2.992 3.213 1.114 0 1.827-.44 2.604-1.166l1.023 1.036c-.946.984-1.982 1.606-3.679 1.606-2.644 0-4.613-2.06-4.613-4.663zM403.554 517.918v-.026c0-2.552 1.969-4.689 4.754-4.689 2.785 0 4.728 2.111 4.728 4.664v.025c0 2.552-1.969 4.689-4.754 4.689-2.785 0-4.728-2.112-4.728-4.663zm7.811 0v-.026c0-1.762-1.282-3.226-3.083-3.226-1.801 0-3.057 1.438-3.057 3.2v.025c0 1.762 1.282 3.213 3.083 3.213 1.801 0 3.057-1.425 3.057-3.186zM415.772 513.357h4.042c1.14 0 2.034.337 2.617.907.479.492.751 1.166.751 1.956v.025c0 1.49-.894 2.384-2.15 2.747l2.448 3.433h-1.891l-2.228-3.161h-1.995v3.161h-1.593v-9.068zm3.925 4.495c1.14 0 1.865-.596 1.865-1.516v-.025c0-.972-.7-1.503-1.878-1.503h-2.319v3.044h2.332zM425.942 513.357h3.381c2.85 0 4.819 1.956 4.819 4.509v.025c0 2.552-1.969 4.534-4.819 4.534h-3.381v-9.068zm1.594 1.451v6.166h1.788c1.904 0 3.148-1.282 3.148-3.057v-.026c0-1.774-1.244-3.083-3.148-3.083h-1.788zM441.568 513.357h3.381c2.85 0 4.819 1.956 4.819 4.509v.025c0 2.552-1.969 4.534-4.819 4.534h-3.381v-9.068zm1.593 1.451v6.166h1.788c1.904 0 3.148-1.282 3.148-3.057v-.026c0-1.774-1.244-3.083-3.148-3.083h-1.788zM455.081 513.293h1.477l3.99 9.133h-1.684l-.92-2.189h-4.288l-.933 2.189h-1.632l3.99-9.133zm2.28 5.531l-1.567-3.627-1.555 3.627h3.122zM463.969 514.834h-2.876v-1.477h7.358v1.477h-2.876v7.592h-1.606v-7.592zM472.986 513.293h1.477l3.99 9.133h-1.684l-.92-2.189h-4.288l-.933 2.189h-1.632l3.99-9.133zm2.28 5.531l-1.567-3.627-1.555 3.627h3.122zM480.812 513.357h4.068c1.036 0 1.853.285 2.371.804.402.401.609.894.609 1.502v.026c0 1.088-.622 1.671-1.296 2.021 1.062.363 1.801.972 1.801 2.202v.026c0 1.619-1.334 2.487-3.355 2.487h-4.197v-9.068zm5.454 2.565c0-.713-.57-1.153-1.594-1.153h-2.293v2.409h2.177c1.023 0 1.71-.401 1.71-1.23v-.026zm-1.36 2.604h-2.526v2.487h2.643c1.088 0 1.749-.428 1.749-1.243v-.026c-.001-.765-.609-1.218-1.866-1.218zM494.183 513.293h1.477l3.99 9.133h-1.684l-.92-2.189h-4.288l-.933 2.189h-1.632l3.99-9.133zm2.28 5.531l-1.567-3.627-1.555 3.627h3.122zM501.245 521.104l.958-1.14c.868.751 1.749 1.179 2.863 1.179.985 0 1.606-.467 1.606-1.141v-.025c0-.647-.363-.998-2.047-1.387-1.93-.466-3.019-1.036-3.019-2.707v-.026c0-1.555 1.296-2.63 3.096-2.63 1.322 0 2.371.402 3.291 1.141l-.855 1.204c-.816-.608-1.632-.933-2.461-.933-.933 0-1.477.479-1.477 1.075v.026c0 .699.415 1.011 2.164 1.425 1.917.467 2.902 1.153 2.902 2.656v.025c0 1.697-1.334 2.708-3.239 2.708a5.576 5.576 0 0 1-3.782-1.45zM510.949 513.357h6.723v1.425h-5.13v2.358h4.547v1.425h-4.547v2.436h5.195v1.425h-6.788v-9.069z"/></g><linearGradient id="SVGID_3_" gradientUnits="userSpaceOnUse" x1="306.384" y1="491.577" x2="524.888" y2="380.59" gradientTransform="matrix(.9863 0 0 1.1211 .058 9.375)"><stop offset="0" stop-color="#17c9c0"/><stop offset=".168" stop-color="#00a9d7"/><stop offset=".564" stop-color="#1cd0bb"/><stop offset="1" stop-color="#0fbec8"/></linearGradient><path d="M531.024 530.775H288.976v-65.039h242.049v65.039zm-239.91-2.139h237.772v-60.762H291.114v60.762z" fill="url(#SVGID_3_)"/><g><path class="st6" d="M431.693 466.88v33.297l.037-.591c0 3.306-9.729 5.987-21.73 5.987s-21.73-2.68-21.73-5.987l.018.591V466.88"/><path class="st2" d="M410 506.654c-10.15 0-20.411-1.946-22.448-5.685a1.075 1.075 0 0 1-.344-.758l-.015-.47a2.707 2.707 0 0 1-.004-.156c0-.068.006-.136.019-.2V466.88h2.163v32.874c.432 1.99 8.375 4.737 20.63 4.737 12.109 0 20.009-2.682 20.611-4.666V466.88h2.163v32.423c.024.091.037.185.037.282 0 .104-.006.208-.017.311l-.022.349a1.08 1.08 0 0 1-.304.687c-1.988 3.763-12.285 5.722-22.469 5.722z"/><ellipse class="st6" cx="410" cy="466.769" rx="21.73" ry="5.987"/><path class="st2" d="M410 473.837c-11.336 0-22.811-2.428-22.811-7.068s11.475-7.067 22.811-7.067 22.811 2.428 22.811 7.067c0 4.641-11.475 7.068-22.811 7.068zm0-11.973c-12.605 0-20.648 2.905-20.648 4.905s8.044 4.906 20.648 4.906 20.648-2.906 20.648-4.906-8.043-4.905-20.648-4.905zM410 484.776c-11.336 0-22.811-2.428-22.811-7.067h2.163c0 2 8.044 4.905 20.648 4.905s20.648-2.905 20.648-4.905h2.163c0 4.639-11.475 7.067-22.811 7.067zM410 495.714c-11.336 0-22.811-2.428-22.811-7.067h2.163c0 2 8.044 4.905 20.648 4.905s20.648-2.905 20.648-4.905h2.163c0 4.64-11.475 7.067-22.811 7.067z"/></g><g><path class="st2" d="M408 441.882h4v16.312h-4z"/><path class="st2" d="M404.017 443.634L410 433.271l5.984 10.363zM404.017 456.443L410 466.806l5.984-10.363z"/></g></svg>